PathFileType	4	(X/Y/Z)	C:/Users/beibeiliu/ov580/test_trc/User3\sequence.29_training_dense_left.trc
DataRate	CameraRate	NumFrames	NumMarkers	Units	OrigDataRate	OrigDataStartFrame	OrigNumFrames
120	120	13	19	mm	120	1	260
Frame#	Time	ThumbCMC			ThumbMCP			ThumbIP			ThumbTip			IndexMCP			IndexPIP			IndexTip			MiddleMCP			MiddlePIP			MiddleTip			RingMCP			RingPIP			RingTip			PinkyMCP			PinkyPIP			PinkyTip			BackHand1			BackHand2			BackHand3	
		X0	Y0	Z0	X1	Y1	Z1	X2	Y2	Z2	X3	Y3	Z3	X4	Y4	Z4	X5	Y5	Z5	X6	Y6	Z6	X7	Y7	Z7	X8	Y8	Z8	X9	Y9	Z9	X10	Y10	Z10	X11	Y11	Z11	X12	Y12	Z12	X13	Y13	Z13	X14	Y14	Z14	X15	Y15	Z15	X16	Y16	Z16	X17	Y17	Z17	X18	Y18	Z18	
0	0	-136.506	-32.9707	20.3371	-117.072	-43.0943	1.61575	-94.1896	-49.9879	-17.4967	-79.4481	-58.0077	-36.4473	-146.727	-12.7117	-55.9113	-135.257	-11.485	-79.5444	-126.04	-9.28042	-108.297	-169.716	-6.93054	-63.9179	-166.991	-3.20591	-91.6701	-164.427	-3.10524	-123.134	-191.271	-15.0027	-61.6721	-193.884	-13.4324	-82.1797	-197.758	-14.1861	-108.591	-216.316	-24.4204	-47.0333	-221.283	-25.6342	-64.4924	-224.852	-24.533	-88.6037	-193.87	-6.93194	-10.9358	-198.204	-7.63074	23.6871	-163.679	-7.30315	6.69207	
1	0.00833333	-138.796	-33.3396	17.4402	-116.722	-41.9368	0.113283	-100.177	-49.9587	-20.3245	-81.6921	-58.4541	-37.2069	-148.72	-13.2373	-58.1696	-137.986	-11.4808	-84.761	-130.044	-11.765	-110.749	-170.58	-7.7814	-66.9244	-168.025	-5.39377	-89.7668	-166.427	-5.47666	-123.881	-197.497	-16.001	-59.8176	-194.728	-15.4227	-82.8039	-199.128	-14.9352	-113.739	-215.155	-26.8879	-43.2333	-223.97	-26.4901	-69.0467	-229.525	-24.2369	-86.1124	-197.926	-9.28436	-7.60041	-198.292	-7.08735	20.8519	-164.181	-8.62145	4.40872	
2	0.0166667	-139.869	-34.3277	18.826	-119.856	-42.7015	1.75498	-96.4408	-50.7372	-22.4617	-85.4701	-58.5648	-34.4747	-144.279	-13.9576	-61.0369	-139.87	-12.8586	-83.3224	-128.377	-13.2055	-106.712	-174.468	-8.69059	-64.1126	-169.619	-6.49806	-91.3631	-164.913	-6.38664	-122.132	-193.471	-16.9814	-57.7908	-196.403	-16.2011	-87.4025	-201.264	-16.561	-112.885	-217.61	-26.3452	-44.3538	-224.794	-27.8403	-66.6764	-228.825	-26.9721	-86.5884	-199.413	-9.14075	-8.21452	-198.363	-9.27908	20.4355	-166.681	-9.5044	6.8159	
3	0.025	-136.284	-33.6286	14.3746	-120.081	-42.8458	-1.76318	-98.6969	-50.5516	-21.094	-84.737	-58.5343	-32.711	-147.689	-13.8971	-61.1999	-135.714	-12.2196	-86.0362	-134.687	-13.2405	-107.16	-172.691	-9.23209	-62.803	-170.284	-6.14408	-93.6371	-168.162	-6.35363	-123.179	-193.455	-16.2908	-60.4549	-197.567	-15.8711	-86.1778	-199.071	-16.5345	-108.192	-213.376	-27.2058	-43.2719	-220.621	-26.0187	-66.4781	-229.386	-23.9675	-85.9746	-197.843	-10.0379	-11.1775	-202.324	-8.80381	19.1868	-165.299	-8.89366	3.75342	
4	0.0333333	-141.077	-34.2063	17.2822	-118.242	-42.4789	-3.26229	-96.3758	-50.2385	-19.1165	-81.4745	-58.015	-33.5864	-145.568	-13.8709	-57.5295	-138.236	-12.1315	-81.5498	-130.084	-12.4096	-105.976	-169.963	-6.90475	-68.0367	-167.411	-6.47675	-95.8156	-165.69	-5.80614	-121.455	-198.159	-16.9443	-59.7945	-196.201	-14.9817	-87.6284	-201.066	-16.7323	-112.805	-218.987	-26.4365	-45.4714	-219.44	-26.1712	-65.2847	-229.582	-23.2923	-86.3234	-198.53	-8.13581	-10.4188	-196.425	-7.8757	17.9937	-165.982	-9.68524	3.56051	
5	0.0416667	-139.483	-33.5103	13.374	-119.008	-41.702	-2.71234	-97.6287	-49.2621	-23.7606	-80.6817	-57.5039	-34.8952	-144.867	-14.2888	-56.2068	-140.059	-12.2372	-86.0229	-130.51	-12.8513	-106.089	-174.13	-7.90489	-67.3106	-168.383	-5.89706	-92.7979	-168.85	-6.15101	-122.761	-198.653	-16.7181	-59.5145	-199.4	-15.3111	-86.8701	-202.642	-16.4707	-109.242	-216.505	-25.3342	-44.5581	-219.619	-26.202	-62.8932	-229.817	-25.4292	-85.3969	-194.986	-8.61096	-6.53157	-198.441	-8.67934	20.3241	-162.382	-9.6455	5.18051	
6	0.05	-136.615	-32.9608	14.289	-115.92	-41.712	-2.70824	-99.698	-50.8997	-19.9065	-83.6385	-57.4486	-35.1	-147.599	-13.2903	-61.6905	-137.014	-13.3663	-81.2143	-132.301	-13.0251	-106.598	-174.695	-7.67571	-67.5799	-168.05	-6.27771	-90.2978	-166.3	-5.31194	-124.274	-193.799	-16.8393	-56.9667	-198.058	-15.5028	-83.477	-199.148	-14.5964	-112.529	-218.626	-25.684	-44.2833	-222.71	-25.7904	-67.7352	-229.599	-24.3765	-86.5355	-193.627	-10.6273	-5.99491	-199.418	-8.45968	22.3625	-165.204	-7.91134	6.72592	
7	0.0583333	-137.511	-32.9778	18.9336	-117.501	-42.2907	0.112528	-94.9633	-49.2063	-22.2532	-80.3258	-57.0806	-33.5276	-146.545	-13.4706	-60.237	-135.285	-13.8033	-85.7966	-132.717	-13.0594	-106.831	-172.753	-8.34901	-67.2879	-168.871	-6.9455	-91.4011	-162.454	-6.68028	-126.775	-193.609	-16.6395	-58.3167	-200.397	-15.9985	-83.9552	-201.54	-16.0527	-108.871	-218.299	-24.4315	-46.5209	-221.084	-25.944	-64.1472	-228.994	-24.1777	-89.3485	-199.049	-10.1703	-6.12018	-199.238	-8.4958	20.3283	-162.194	-7.29429	5.6951	
8	0.0666667	-137.547	-33.8458	15.8041	-117.852	-42.4736	-3.10963	-99.4653	-49.7173	-21.9614	-81.0664	-56.6912	-38.0635	-146.647	-14.1294	-58.1388	-136.134	-13.2477	-86.7742	-126.488	-14.3418	-110.465	-172.153	-8.52867	-63.9485	-170.882	-6.07491	-95.1678	-164.9	-6.62767	-124.366	-195.534	-16.2415	-60.1584	-199.588	-15.7381	-83.5565	-198.258	-15.7186	-111.586	-218.111	-25.5272	-42.1838	-220.722	-25.6714	-63.0122	-229.455	-23.0002	-86.675	-196.145	-10.4918	-8.05385	-199.679	-9.22423	23.0656	-163.976	-9.71062	6.32279	
9	0.075	-139.791	-34.041	16.9624	-114.199	-42.5295	-1.46124	-95.1487	-49.2731	-18.6625	-84.2156	-57.9648	-35.4378	-145.246	-14.6116	-59.4098	-139.442	-13.2804	-82.8287	-130.779	-13.2019	-108.611	-170.271	-7.93892	-66.2753	-166.599	-5.99799	-92.7381	-164.099	-6.90755	-122.994	-192.15	-15.7785	-61.4729	-200.241	-15.2877	-81.9892	-199.897	-16.2932	-109.872	-213.458	-25.7888	-42.0497	-222.337	-25.4781	-65.766	-227.735	-23.7558	-86.1769	-198.616	-9.67844	-7.57304	-198.949	-7.9837	18.8737	-162.714	-9.43392	6.88957	
10	0.0833333	-136.979	-33.33	15.1289	-116.128	-42.1873	-1.5481	-96.0498	-49.9171	-21.406	-80.1354	-57.1944	-36.5464	-147.195	-14.1663	-60.9065	-136.324	-13.3191	-83.5345	-130.873	-13.3884	-111.253	-171.239	-7.11771	-67.9764	-167.564	-6.28963	-91.9641	-168.062	-6.36017	-123.182	-198.291	-16.3473	-59.5193	-199.451	-15.0213	-82.6739	-199.251	-15.4072	-111.579	-213.691	-25.2761	-42.6469	-222.055	-24.5529	-65.5658	-228.335	-25.1464	-86.3287	-197.915	-9.29607	-7.16821	-197.764	-8.91497	17.9603	-164.222	-8.42795	5.71546	
11	0.0916667	-140.729	-34.879	17.0446	-113.949	-42.2147	0.386333	-94.8409	-49.2322	-20.1551	-84.451	-57.1254	-37.1901	-145.881	-12.8831	-60.6129	-136.109	-11.5816	-85.8516	-131.795	-12.1358	-107.789	-172.225	-7.06046	-64.8102	-170.798	-4.14817	-93.9881	-167.803	-5.35014	-127.012	-197.37	-16.1159	-57.3985	-197.174	-15.4218	-82.644	-202.641	-17.5417	-108.799	-214.073	-24.0705	-47.9403	-221.324	-26.9436	-64.2167	-232.612	-29.9527	-88.5217	-197.704	-7.34462	-8.70795	-200.002	-7.88297	20.4141	-161.405	-10.5085	4.08846	
12	0.1	-140.381	-32.6097	12.4624	-119.549	-42.3379	-3.50126	-95.157	-49.236	-21.3313	-81.9295	-55.9349	-37.7873	-145.72	-11.0013	-61.0175	-135.064	-9.50559	-84.2892	-131.072	-10.4934	-106.637	-171.772	-5.72345	-66.1094	-172.201	-3.59234	-95.6096	-171.543	-6.5177	-124.002	-200.162	-15.7001	-58.6006	-198.179	-17.3206	-86.8824	-203.781	-25.2949	-111.514	-218.569	-27.6027	-43.5424	-224.516	-32.148	-64.1459	-231.073	-41.2516	-90.2344	-194.288	-9.71514	-10.0329	-197.772	-9.36154	22.9223	-164.205	-10.3511	6.489	
